<svg width="37" height="30" viewBox="0 0 37 30" fill="none" xmlns="http://www.w3.org/2000/svg">
<path d="M18.5222 4.76549C19.3742 4.0384 20.2899 3.38729 21.2579 2.81964C26.1127 -0.0728737 31.5538 -0.651544 36.9955 0.700312L36.9925 11.0885C35.672 10.7068 34.2753 10.5108 32.9059 10.4108C32.68 10.3807 32.4011 10.3879 32.1704 10.3809C28.0969 10.2573 24.018 11.3987 20.6033 13.603C19.8588 14.0839 19.206 14.5865 18.518 15.1414C13.0638 10.8277 6.83161 9.31868 0.0190936 11.0863C-0.0212196 7.64179 0.01648 4.14426 0.00613415 0.693415C1.54154 0.335969 2.51483 0.15542 4.07384 0.0356423C9.68689 -0.262917 14.1697 1.31423 18.5222 4.76549Z" fill="white"/>
<path d="M18.5237 17.6205C19.2884 16.9756 20.1 16.3879 20.9521 15.8624C24.61 13.6191 28.8922 12.5861 33.1804 12.9126C34.6395 13.0275 35.5897 13.2273 36.9929 13.5472C37.0066 15.7106 37.0012 17.8741 36.978 20.0374C35.8977 19.6296 33.9718 19.3947 32.8141 19.3317C27.6239 18.8901 22.5128 20.8467 18.5184 24.0612C17.6354 23.434 17.1716 22.9899 16.1813 22.3776C12.2847 19.9443 7.66743 18.9017 3.0923 19.4218C2.01817 19.5427 1.0676 19.754 0.0210013 19.9932L0.00976562 13.562C1.68455 13.166 2.50639 13.0224 4.22802 12.8859C5.08911 12.806 6.45084 12.856 7.31377 12.9414C11.7359 13.3788 15.0904 14.9194 18.5237 17.6205Z" fill="white"/>
<path d="M18.5244 26.5501C19.2641 25.9149 20.0537 25.3395 20.8861 24.8295C24.789 22.4073 29.409 21.3768 33.9826 21.9081C35.0522 22.0319 35.9554 22.2403 36.9977 22.4816L36.9965 25.9482C35.6373 25.5563 33.9796 25.3632 32.574 25.252C27.0663 25.1137 22.806 26.6117 18.5232 30C17.6385 29.3805 17.0112 28.8205 16.0364 28.2434C10.8129 25.1513 5.83687 24.5883 0.0300426 25.9497L0.00292969 22.4974C1.71029 22.0367 2.89989 21.8852 4.65589 21.7875C10.0007 21.5898 14.3887 23.3014 18.5244 26.5501Z" fill="white"/>
</svg>
